<mxfile host="drawio-plugin" modified="2021-10-26T09:03:24.178Z" agent="5.0 (X11; Linux x86_64) AppleWebKit/537.36 (KHTML, like Gecko) Chrome/89.0.4389.114 Safari/537.36" etag="2hn85Ci-OAFJQ7GA4dWa" version="14.7.4" type="embed"><diagram id="23iRSUPoRavnBvh4doch" name="Page-1"><mxGraphModel dx="864" dy="541" grid="1" gridSize="10" guides="1" tooltips="1" connect="1" arrows="1" fold="1" page="1" pageScale="1" pageWidth="827" pageHeight="1169" math="0" shadow="0"><root><mxCell id="0"/><mxCell id="1" parent="0"/><mxCell id="2" value="&lt;h1&gt;PropertyChain&lt;/h1&gt;&lt;p&gt;this diagram will explains how should property chain react to a chain&lt;/p&gt;" style="text;html=1;strokeColor=none;fillColor=none;spacing=5;spacingTop=-20;whiteSpace=wrap;overflow=hidden;rounded=0;" vertex="1" parent="1"><mxGeometry x="20" y="20" width="190" height="120" as="geometry"/></mxCell><mxCell id="14" style="edgeStyle=orthogonalEdgeStyle;rounded=0;orthogonalLoop=1;jettySize=auto;html=1;" edge="1" parent="1" source="3" target="13"><mxGeometry relative="1" as="geometry"/></mxCell><mxCell id="3" value="Property1" style="rounded=1;whiteSpace=wrap;html=1;" vertex="1" parent="1"><mxGeometry x="55" y="250" width="120" height="60" as="geometry"/></mxCell><mxCell id="15" style="edgeStyle=orthogonalEdgeStyle;rounded=0;orthogonalLoop=1;jettySize=auto;html=1;entryX=0;entryY=0.5;entryDx=0;entryDy=0;" edge="1" parent="1" source="5" target="13"><mxGeometry relative="1" as="geometry"/></mxCell><mxCell id="5" value="Property2" style="rounded=1;whiteSpace=wrap;html=1;" vertex="1" parent="1"><mxGeometry x="55" y="370" width="120" height="60" as="geometry"/></mxCell><mxCell id="6" value="Property3" style="rounded=1;whiteSpace=wrap;html=1;" vertex="1" parent="1"><mxGeometry x="490" y="370" width="120" height="60" as="geometry"/></mxCell><mxCell id="16" style="edgeStyle=orthogonalEdgeStyle;rounded=0;orthogonalLoop=1;jettySize=auto;html=1;entryX=0.5;entryY=1;entryDx=0;entryDy=0;" edge="1" parent="1" source="10" target="13"><mxGeometry relative="1" as="geometry"/></mxCell><mxCell id="10" value="...." style="rounded=1;whiteSpace=wrap;html=1;" vertex="1" parent="1"><mxGeometry x="55" y="500" width="120" height="60" as="geometry"/></mxCell><mxCell id="12" value="each property can depends on infinitly many other properties, by utlising a binder,&lt;br&gt;it can arbitary process incoming data with Piper" style="text;html=1;strokeColor=none;fillColor=none;align=left;verticalAlign=middle;whiteSpace=wrap;rounded=0;" vertex="1" parent="1"><mxGeometry x="280" y="200" width="290" height="60" as="geometry"/></mxCell><mxCell id="19" style="edgeStyle=orthogonalEdgeStyle;rounded=0;orthogonalLoop=1;jettySize=auto;html=1;entryX=0;entryY=0.5;entryDx=0;entryDy=0;" edge="1" parent="1" source="13" target="18"><mxGeometry relative="1" as="geometry"/></mxCell><mxCell id="13" value="Binder" style="rhombus;whiteSpace=wrap;html=1;" vertex="1" parent="1"><mxGeometry x="250" y="360" width="80" height="80" as="geometry"/></mxCell><mxCell id="20" style="edgeStyle=orthogonalEdgeStyle;rounded=0;orthogonalLoop=1;jettySize=auto;html=1;entryX=0;entryY=0.5;entryDx=0;entryDy=0;" edge="1" parent="1" source="18" target="6"><mxGeometry relative="1" as="geometry"/></mxCell><mxCell id="18" value="Piper" style="triangle;whiteSpace=wrap;html=1;" vertex="1" parent="1"><mxGeometry x="384" y="360" width="60" height="80" as="geometry"/></mxCell><mxCell id="21" value="" style="rounded=0;whiteSpace=wrap;html=1;align=left;fillColor=none;dashed=1;" vertex="1" parent="1"><mxGeometry x="350" y="330" width="280" height="130" as="geometry"/></mxCell><mxCell id="26" style="edgeStyle=orthogonalEdgeStyle;rounded=0;orthogonalLoop=1;jettySize=auto;html=1;entryX=0;entryY=0.5;entryDx=0;entryDy=0;" edge="1" parent="1" source="22" target="23"><mxGeometry relative="1" as="geometry"/></mxCell><mxCell id="22" value="Property1" style="rounded=1;whiteSpace=wrap;html=1;" vertex="1" parent="1"><mxGeometry x="50" y="660" width="120" height="60" as="geometry"/></mxCell><mxCell id="28" style="edgeStyle=orthogonalEdgeStyle;rounded=0;orthogonalLoop=1;jettySize=auto;html=1;entryX=0.5;entryY=0;entryDx=0;entryDy=0;" edge="1" parent="1" source="23" target="22"><mxGeometry relative="1" as="geometry"><Array as="points"><mxPoint x="340" y="640"/><mxPoint x="110" y="640"/></Array></mxGeometry></mxCell><mxCell id="23" value="Property2" style="rounded=1;whiteSpace=wrap;html=1;" vertex="1" parent="1"><mxGeometry x="280" y="660" width="120" height="60" as="geometry"/></mxCell><mxCell id="27" value="Event" style="text;html=1;strokeColor=none;fillColor=none;align=center;verticalAlign=middle;whiteSpace=wrap;rounded=0;dashed=1;" vertex="1" parent="1"><mxGeometry x="200" y="660" width="40" height="20" as="geometry"/></mxCell><mxCell id="29" value="read value" style="text;html=1;strokeColor=none;fillColor=none;align=center;verticalAlign=middle;whiteSpace=wrap;rounded=0;dashed=1;" vertex="1" parent="1"><mxGeometry x="170" y="610" width="110" height="20" as="geometry"/></mxCell><mxCell id="30" value="" style="shape=flexArrow;endArrow=classic;html=1;" edge="1" parent="1"><mxGeometry width="50" height="50" relative="1" as="geometry"><mxPoint x="82.5" y="770" as="sourcePoint"/><mxPoint x="357.5" y="770" as="targetPoint"/></mxGeometry></mxCell></root></mxGraphModel></diagram></mxfile>